<?xml version="1.0" standalone="no"?>
<!DOCTYPE svg PUBLIC "-//W3C//DTD SVG 20010904//EN"
 "http://www.w3.org/TR/2001/REC-SVG-20010904/DTD/svg10.dtd">
<svg version="1.0" xmlns="http://www.w3.org/2000/svg"
 width="768.000000pt" height="768.000000pt" viewBox="0 0 768.000000 768.000000"
 preserveAspectRatio="xMidYMid meet">
<metadata>
Created by potrace 1.11, written by Peter Selinger 2001-2013
</metadata>
<g transform="translate(0.000000,768.000000) scale(0.100000,-0.100000)"
fill="#000000" stroke="none">
<path d="M3589 7635 c-2 -2 -46 -6 -97 -10 -52 -3 -101 -8 -110 -9 -10 -2 -43
-7 -76 -11 -66 -8 -90 -11 -161 -25 -27 -5 -61 -12 -75 -14 -14 -3 -36 -8 -50
-11 -14 -3 -36 -7 -50 -10 -105 -19 -440 -125 -552 -173 -25 -11 -49 -18 -52
-15 -3 4 -6 1 -6 -5 0 -7 -7 -12 -15 -12 -9 0 -82 -32 -163 -72 -81 -39 -150
-71 -154 -70 -5 1 -8 -3 -8 -8 0 -6 -4 -10 -10 -10 -8 0 -60 -29 -160 -90
-171 -103 -349 -232 -515 -374 -96 -82 -425 -416 -425 -431 0 -3 -8 -13 -17
-23 -10 -10 -29 -32 -43 -50 -14 -18 -35 -45 -48 -60 -12 -15 -35 -45 -49 -67
-24 -34 -44 -62 -81 -110 -4 -5 -25 -39 -47 -75 -21 -36 -42 -67 -45 -70 -4
-3 -21 -32 -39 -65 -18 -33 -37 -64 -41 -70 -10 -12 -150 -290 -150 -298 0 -2
-12 -31 -27 -63 -15 -33 -28 -61 -29 -64 0 -3 -3 -12 -7 -20 -55 -139 -148
-429 -161 -503 -3 -15 -7 -35 -10 -45 -3 -9 -7 -28 -10 -42 -3 -14 -8 -36 -11
-50 -3 -14 -7 -36 -10 -50 -3 -14 -7 -36 -10 -50 -5 -26 -14 -85 -20 -130 -1
-14 -6 -50 -10 -80 -12 -91 -13 -110 -21 -235 -12 -195 -7 -439 11 -605 16
-134 20 -167 31 -235 3 -22 8 -49 11 -60 2 -11 8 -40 13 -65 20 -104 45 -209
70 -295 12 -38 23 -77 25 -85 16 -63 103 -296 151 -405 10 -22 17 -43 16 -47
-1 -5 3 -8 8 -8 6 0 10 -9 10 -20 0 -11 5 -20 10 -20 6 0 10 -6 10 -12 0 -21
139 -282 190 -358 10 -14 36 -55 59 -92 23 -36 53 -79 67 -95 13 -15 24 -33
24 -40 0 -6 3 -13 8 -15 4 -1 27 -30 52 -63 25 -33 47 -62 50 -65 3 -3 39 -45
79 -95 72 -86 297 -317 391 -400 180 -158 383 -302 645 -457 50 -30 310 -158
380 -188 206 -87 559 -196 733 -226 12 -2 32 -6 45 -8 30 -5 85 -15 122 -21
17 -3 53 -7 80 -10 28 -3 59 -8 71 -10 120 -25 697 -25 854 -1 19 3 55 8 80
11 66 7 109 13 165 25 28 5 62 12 77 14 152 25 485 125 663 198 39 16 75 30
81 32 22 4 362 176 426 215 242 147 462 308 628 461 147 134 380 380 380 401
0 5 4 9 8 9 5 0 22 19 39 42 34 47 138 187 150 203 27 34 123 187 183 291 55
96 167 323 201 409 13 33 26 62 29 65 3 3 7 14 8 25 2 11 8 24 13 30 5 5 9 15
9 21 0 7 5 25 12 41 6 15 12 30 13 33 1 3 12 39 25 80 13 41 25 77 25 80 0 3
4 11 8 18 5 6 6 12 3 12 -3 0 1 17 9 39 14 39 69 279 79 341 3 19 8 46 11 60
3 14 7 43 10 65 3 22 7 56 10 75 6 42 14 120 21 215 8 87 7 463 0 530 -3 28
-8 79 -11 115 -6 74 -13 131 -20 175 -10 61 -17 110 -18 128 -1 9 -5 17 -10
17 -4 0 -6 4 -2 9 14 23 -94 419 -169 620 -72 193 -127 310 -268 571 -10 19
-41 69 -68 110 -28 41 -56 86 -63 100 -6 14 -18 32 -25 40 -8 8 -43 56 -79
105 -58 79 -86 115 -168 214 -120 144 -328 347 -494 481 -24 19 -49 41 -56 48
-8 6 -18 12 -24 12 -6 0 -11 3 -11 8 0 4 -17 18 -37 32 -20 14 -42 30 -48 35
-6 6 -18 15 -26 20 -9 6 -44 29 -80 52 -35 23 -69 45 -75 50 -15 12 -39 26
-144 87 -306 175 -631 307 -965 392 -63 15 -251 54 -294 60 -19 2 -46 6 -60 9
-67 13 -158 25 -236 31 -59 5 -562 13 -566 9z m486 -709 c94 -9 268 -34 330
-47 124 -25 223 -49 275 -66 25 -8 52 -16 60 -18 21 -5 178 -60 215 -75 17 -7
48 -20 69 -29 75 -31 311 -149 349 -175 21 -14 40 -26 44 -26 9 0 148 -93 151
-102 2 -4 8 -8 14 -8 10 0 187 -133 255 -193 60 -52 295 -289 333 -335 19 -24
40 -49 46 -55 33 -38 126 -164 174 -237 30 -47 57 -87 61 -90 3 -3 9 -12 12
-20 4 -8 23 -42 42 -75 55 -97 141 -273 180 -370 39 -97 101 -275 109 -315 3
-14 10 -41 16 -60 19 -60 50 -212 65 -315 3 -23 7 -51 10 -64 2 -12 7 -59 10
-104 4 -45 8 -93 11 -107 5 -30 5 -363 0 -405 -3 -16 -7 -59 -10 -95 -4 -36
-8 -85 -11 -110 -9 -94 -78 -412 -109 -505 -2 -5 -4 -13 -5 -17 -6 -25 -89
-245 -111 -293 -34 -74 -124 -257 -143 -290 -56 -97 -81 -140 -87 -145 -3 -3
-32 -45 -65 -95 -32 -49 -67 -99 -76 -110 -16 -18 -79 -96 -127 -158 -25 -32
-292 -297 -337 -335 -122 -103 -421 -312 -445 -312 -5 0 -15 -6 -22 -13 -7 -7
-43 -29 -81 -48 -37 -19 -82 -42 -100 -51 -17 -9 -81 -37 -142 -63 -60 -25
-119 -50 -130 -55 -30 -13 -198 -68 -226 -74 -13 -3 -49 -12 -79 -20 -86 -25
-260 -59 -360 -72 -25 -3 -56 -7 -70 -10 -134 -22 -608 -22 -715 1 -11 3 -40
7 -65 9 -25 3 -56 7 -70 11 -14 3 -38 7 -55 10 -187 28 -488 119 -684 206 -96
43 -196 94 -199 101 -2 4 -9 8 -17 8 -12 0 -160 84 -199 113 -15 11 -105 69
-129 83 -32 20 -177 135 -262 209 -128 113 -205 192 -379 395 -78 92 -229 322
-314 479 -51 95 -56 106 -57 111 0 3 -13 32 -28 65 -16 33 -33 70 -38 83 -11
28 -29 71 -40 97 -5 11 -23 65 -40 120 -17 55 -34 107 -37 115 -3 8 -7 20 -8
25 -1 6 -3 13 -4 18 -1 4 -4 12 -5 17 -1 6 -4 12 -5 15 -1 3 -3 8 -4 13 -2 6
-13 60 -21 97 -18 83 -36 180 -40 220 -2 17 -4 30 -5 30 -1 0 -3 11 -4 25 -27
235 -28 608 -1 790 2 14 6 41 9 60 6 48 25 154 30 175 2 6 6 28 10 50 18 93
109 397 126 420 4 6 11 21 15 35 22 75 138 316 206 429 22 34 39 65 39 67 0 7
130 196 177 257 81 105 184 221 287 322 124 121 143 137 265 232 53 41 103 80
111 86 30 23 206 135 275 175 58 33 249 127 330 162 121 52 431 149 535 167
14 2 34 6 45 8 89 17 136 25 175 30 25 3 59 7 75 9 17 3 66 7 110 11 44 4 81
7 82 8 5 5 366 -1 428 -7z"/>
<path d="M3690 5646 c-97 -21 -173 -74 -226 -158 -56 -89 -56 -92 -57 -745 0
-332 -2 -604 -6 -604 -3 -1 -278 -2 -611 -3 -423 -2 -617 -6 -645 -14 -76 -22
-157 -84 -201 -154 -102 -162 -52 -377 113 -481 86 -55 94 -55 704 -56 310 0
583 -1 605 -1 l41 0 0 -582 c0 -321 3 -605 7 -633 14 -103 79 -198 172 -252
62 -37 114 -50 184 -47 68 3 93 10 155 40 80 39 167 159 180 249 3 22 6 307 6
633 l0 592 97 0 c53 1 326 1 606 1 421 1 517 3 559 16 97 29 178 98 224 190
25 51 28 69 28 148 0 79 -4 97 -29 147 -39 78 -93 131 -173 169 l-68 33 -620
1 -620 1 -2 554 c-1 631 -2 660 -19 716 -12 41 -45 97 -81 141 -18 21 -120 90
-136 91 -4 0 -20 3 -35 6 -59 12 -99 13 -152 2z"/>
</g>
</svg>
