<?xml version="1.0" encoding="utf-8"?>
<!-- Generator: Adobe Illustrator 23.0.1, SVG Export Plug-In . SVG Version: 6.00 Build 0)  -->
<svg version="1.1"
	 id="svg2" xmlns:cc="http://creativecommons.org/ns#" xmlns:dc="http://purl.org/dc/elements/1.1/" xmlns:rdf="http://www.w3.org/1999/02/22-rdf-syntax-ns#" xmlns:svg="http://www.w3.org/2000/svg"
	 xmlns="http://www.w3.org/2000/svg" xmlns:xlink="http://www.w3.org/1999/xlink" x="0px" y="0px" viewBox="0 0 825.2 443.3"
	 style="enable-background:new 0 0 825.2 443.3;" xml:space="preserve">
<style type="text/css">
	.st0{clip-path:url(#SVGID_2_);}
	.st1{fill-rule:evenodd;clip-rule:evenodd;fill:#62AE5A;}
	.st2{fill-rule:evenodd;clip-rule:evenodd;fill:#292929;}
	.st3{fill-rule:evenodd;clip-rule:evenodd;fill:#E5D94A;}
	.st4{fill-rule:evenodd;clip-rule:evenodd;fill:#FAF9DD;}
	.st5{fill-rule:evenodd;clip-rule:evenodd;fill:#FAF9D6;}
	.st6{fill-rule:evenodd;clip-rule:evenodd;fill:#FFFFFF;}
	.st7{fill-rule:evenodd;clip-rule:evenodd;fill:#2C2F2D;}
</style>
<g>
	<defs>
		<rect id="SVGID_1_" y="0" width="825.2" height="443.3"/>
	</defs>
	<clipPath id="SVGID_2_">
		<use xlink:href="#SVGID_1_"  style="overflow:visible;"/>
	</clipPath>
	<g id="g10" transform="matrix(1.3333333,0,0,-1.3333333,1.3333333,441.99413)" class="st0">
		<g id="g16" transform="matrix(1.3333333,0,0,-1.3333333,1.3333333,441.99413)">
			<path id="path18" class="st1" d="M233.3,280.2h-3.6v-5.3l-2.7,0.1l-0.3,21.1c0.5-0.8,2.7-5.2,2.5-6.3c0-1.7,0.3-3.8,0.1-4.9
				c0.3-0.2,0-0.1,0.7-0.2h1.7L233.3,280.2z M109.3,232l-21.8,0.1L85,245c-0.9-1.3-0.3-1.2-2.1-3.2c-2.5-2.7-0.7-0.7-2.3-3.2
				c-1.2-2-3.3-3.9-5.7-5c-2.8-1.2-5.8-1.7-9.3-1.7c-1.2,0-9.6,0.3-9.8,1l-4.6,23.8c-0.4,2.5-1.1,5.3-1.5,7.9c2,0.4,4,0.7,6.2,0.8
				c0,0.6-0.1,1.1-0.3,1.6c-0.1,0.5-0.3,1.1-0.1,1.5c3.6,0.9,11.4,0.9,15.3,0.3c7.7-1.3,9.7-4.8,10.9-5.4l-0.3,2h6.4l-0.7,3.7
				l20.3-0.1l0.8-4.3l3.2,0.8l-0.7,1.6c2.1,2,8.9,2.7,12.5,2.2c6.6-0.9,11.2-5.4,10.5-11.6c-0.3-2.2-1.2-3.4-2.5-4.8
				c-1.5-1.4-0.9-0.4-1.6-2.2c-1.3-3.5-4.8-4.9-5.4-5.7c3.6-1.5,6.4,0,8.9,0.7l2.5-6.9c-1.6-0.6-2.7-1.1-4.6-1.3l1.3-3.7
				c-2.9-2.6-16.6-4.4-21.8,4h-2.3L109.3,232z M189.4,230.1c0.8-0.8,5-4.9,5.4-5.6h-11.7c-0.9,1.9-4.5,5.9-5.2,7.5h-5.3l-1.9,9.8
				c-0.4-0.4-0.7-0.8-1.1-1.3c-1.6-1.5-1.3-0.4-2.1-2.6c-0.9-2.7-3.1-4.4-6.2-5.3c-3.6-1.1-13.1-1.1-16.6,0.3l-6.2,32.3h6.4
				l-0.7,3.7l8.1-0.1c0.8-2,1.1-7.7,1.9-9.1c0.4,1.4,0.3,4.2,1.1,5.5h4.4c0.4,0.1,0.7,3.2,0.9,3.7h8.4c-0.4-1.3-0.7-2.2-0.8-3.7h4.6
				l-0.7,3.7c4.4,0,16.9,0.1,20.4-0.1l1.2-7h-4.4l1.1-5.4c0.9-0.1,2.4,0.1,3.2-0.1c2.8,7.2,6.2,6.6,7.7,8.4c2.5,2.7,6,4.7,11.4,4.7
				c3.6,0,5.3-0.5,8.4-1.3l-0.7-6.7c-0.8,0-1.7,0.7-2.7,0.6c-0.4,0-0.1,0-0.4-0.1l-0.7-6.5c-2.1,0.3-3.8,2.2-9.4,0.9v-1.1
				c-0.4-6.2,4-10.9,10-10.9c0.9-0.1,1.7,0.1,2.5,0.2c0.4,1.2-4.5,12.9,5.3,19.1c0.5,0.4,0.9,0.5,1.6,0.9c0.5,0.2,0.8,0.6,1.2,1.1
				c4.9,5.3,14.5,4.8,19.9,0.6c0.5-0.4,0.8-0.6,1.3-1.1c0.4-0.4,0.7-0.8,1.2-1l-0.1,1.2h6.4l-0.7,3.7l19.6-0.1
				c0.4-0.8,0.5-2.6,0.7-3.6h3.5l-0.7,3.7h19.8c0.1-0.7,0.3-1.4,0.4-2c0.4-2.3,0.1-1.6,3.6-1.6l-0.5,3.6c3.5,0.2,15.4,0.1,19.8,0.1
				c1.1,0,0.9-2.7,1.2-3.5c0.1-1.1,0.4-2.4,0.5-3.5h-4.4l1.1-5.4l3.1,0.1l1.3-7h-4.4l1.1-4.7c4.8,0,4.8,0.4,5-0.8l0.5-2.7h2.8
				l-0.5,3.7h1.2c-0.5,3.7-3.9,18.4-3.7,20.4h6.4l-0.7,3.7h8.1c0.5-3.9,1.6-8.2,2.3-12.1c0.4-2.1,0.8-4,1.2-6.1
				c0-0.4,0.8-5.7,1.3-5.8l4,0.1c0.7,1.4,0.8,2.3,1.7,3.5c0.7,0.9,1.9,1.9,2.8,2.5c0.5,0.3,1.1,0.6,1.6,1c0.9,0.5,0.9,0.4,1.5,1.1
				c0.8,0.9,2,1.4,2.8,2.3c-0.8,1.6-4,1.3-5.8,0.9c-2.4-0.5-3.3-1.3-5.3-2.2l-3.3,8.6c2,1.1,3.8,2.2,6.4,2.5l-0.7,1.9
				c1.1,0.4,2,0.9,3.3,1.4c7.8,2.2,19.6,0.4,19.6-10c0-5.1-3.3-5.4-4-7.6c-1.3-3.8-4.4-4.7-5.6-5.9c0.8-0.5,1.9-0.6,3.1-0.6
				c2.7,0,3.8,0.7,5.8,1.3l2.5-6.7c-1.1-0.7-3.1-1.3-4.6-1.4l1.3-3.7c-1.9-1.5-6.2-2.2-9-2.2c-3.2,0-5.6,0.6-8.1,1.9
				c-4.1,2-3.8,4.3-5.3,4.3l0.9-5.7h-25.8c-0.3,1.1-0.4,2.2-0.5,3.2c-0.4,2.1,0,2.4-1.3,2.4l0.9-5.7l-21.6,0.1l-5.6,29.5h-1.3
				l0.9-5.6h-7l3.5-18.4h-4.4l0.9-5.7h-10.1l-5.6,29.6h-1.5l1.1-5.6h-7l3.3-18.4l-4.4-0.1l1.1-5.6h-9.8c-0.5,0-0.5,0.7-0.7,1.4
				c-0.5,3.7-1.5,7.5-2,11.2c0-0.1-0.1-0.1-0.1-0.1c0-0.1,0-0.1-0.1-0.1c-0.4-0.6-0.7-1.4-1.1-2c-0.5-0.7-1.1-1.4-1.6-1.9
				c-1.1-0.9-0.7-0.6-1.3-2c-1.9-3.6-4.8-6-9.7-6.7c-5.8-0.9-11.2,1-15.1,4.5c-2.1,1.9-0.5,1.8-4.5,1l1.2-3.9
				c-4.1-2.9-13.1-2-17.4-0.1c-2,0.9-5.2,2.8-6.2,4.4h-4.6c0-0.6,0.7-4.4,0.9-4.7c0.4-0.7,2.1-2,2.7-2.9H189.4L189.4,230.1z
				 M101,174.9c1.5-1.1,6.2-2.4,6.9-8.5c0.3-2.6-0.4-4.5-1.5-6.2c-1.2-1.8-2.1-2-2.9-2.8c-0.4-0.4-0.4-0.6-0.7-1.1
				c-4.2-8.6-20-7.9-30-6c-0.8,0.1-0.8,0.1-0.9,1c-0.1,0.5-0.1,1.1-0.3,1.6l-3.1,16.1c-0.3,1.7-4.8,24.7-4.8,25.7
				c1.7,0.6,5.3,0.9,7.2,1l-0.3,2.2c5.2,0.9,10.8,1.1,16.1,0.8c2.7-0.2,5.2-0.5,7.6-1.1c1.6-0.4,5-1.6,5.8-2.6v0.2
				c0.1,0,0.1,0.1,0.1,0.1c0.1,0.3-0.3,0.1,0.1,0.3h8.5l-1.3,2.9h12.1l3.3-7.8c1.3-3,0.1-2.4,5.6-2.3l0.4,7.1
				c1.2,0.5,4.9-0.1,6.4,0.2l0.1,2.8h11.9l-4.8-43.4h-3.3l-0.7-5.6h-16.6c-2.7,5.5-5.4,11.2-8,16.8c-1.2,2.7-7.2,14.7-8,16.8
				c-0.5-0.9-0.5-3.9-3.7-6.2C101.6,176.1,101.4,176,101,174.9L101,174.9z M315.4,149.3h-13.9c-0.9,3.7-1.5,7.7-2.1,11.4
				c-0.8,3.6-6.1,33.3-6.5,34.1c-0.8-5.3-0.7-14.7-4.6-16.6c0.4-0.4,2.4-1.1,3.2-1.6c7.4-4.4,8.1-14.1,2.3-18.6
				c-1.9-1.5-0.4-0.6-2-2.7c-2.7-3.7-7-5.6-13.1-6.1c-4-0.3-9.4-0.1-13.5,0.6c-1.3,0.2-2.7,0.6-3.9,0.8l-8.6,45h7.4l-0.5,2.9
				l11.2-0.1c0.7-1.8,2.5-15.2,3.2-16.1c0.3,0.6,0.7,5.7,0.8,6.8c0.3,2.5,0.5,4.2,1.2,6.5h5.7l0.5,2.9h11.5c-0.1-1-0.5-1.7-0.5-2.9
				h7.2l-0.4,2.9h11.2c0.8-3.4,1.5-7.3,2.1-10.8l5.2-27.2c0.1-1.2,0.9-4.4,0.9-5.4l-4.6-0.1L315.4,149.3z M355.7,154.9h-4.6l0.9-5.6
				c-9.6,0-19.6,0.1-29.1,0c-1.5,0-1.1,0.1-1.3,1.5l-6.8,35.7c-0.5,2.9-1.2,6.1-1.6,9h7.4l-0.5,2.9h28.3l0.9-5.2
				c1.5,0.4,2.5,1.5,5.6,2.1c0,1,0.1,0.8,1.1,1.3c4.2,2.2,10.9,2.9,15.5,2.4c6.4-0.7,11-3.5,13.4-7.5c3.3-5.4,2.3-11.9-1.6-15.5
				c-2-1.9-0.5,0-2.3-2.7c-0.9-1.3-1.5-1.8-2.5-2.8c-0.9-1-4.6-3.5-6.2-4.1c0.9-3.1,7.3-2.5,10.2-1.7c1.2,0.3,2.3,0.9,3.3,1.1
				l3.6-9.4c-0.8-0.3-1.5-0.6-2.4-0.9c-0.4-0.1-2-0.6-2.4-0.7l1.2-3.3c-2.4-0.6-2.9-1.8-8.1-2.5c-3.3-0.4-6.8-0.4-10,0.2
				c-2.8,0.6-5.4,1.6-7.4,3c-1.6,1-4.8,4-5,5.4L355.7,154.9z M221.4,149.3h-35.7c-0.4,1.2-0.8,3.9-1.1,5l-0.3,0.6h-1.7l0.9-5.6
				h-35.8l-2.4,12.6h7.4l-0.4,2.9l3.2,0.1l-5.7,30.6h7.4l-0.4,2.9H168l6.4-33.5h11l0.5-2.9h4.6l-0.5,2.9h3.3l-5.7,30.7l7.4,0.1
				l-0.4,2.8c2.1,0,4.2,0,6.5,0c5.4,0,4.6,0.4,4.9-1.3c0.5-3.4,5.7-31.5,6.1-32.3h10l-5.7,30.7h7.4l-0.5,2.9h28.3l1.7-9.7h-4.6
				l1.1-5.6h-12.2l0.4-2.1h15c0.4-1.3,2-8.7,1.9-9.6h-4.6l1.1-5.6h-10.5l0.3-1.2l15.8-0.1c0.5-0.3,0.5-1.6,0.7-2.2
				c0.3-1.6,1.5-6.5,1.3-7.4l-4.6-0.1l1.1-5.5h-27.6c-2.7,0-2.4-0.6-2.8,1.7c-0.3,1.3-0.5,2.6-0.8,3.9l-3.6-0.1L221.4,149.3z
				 M220.6,126.5c0.3-0.9,0.4-8.8,0.3-10.2c-0.3,0.4-10.6,26.5-11,28h3.7l2.5-6.2c0.5,0.4,3.7,0.2,4.4,0.2
				C220.4,136.7,220.8,127.2,220.6,126.5L220.6,126.5z M48.5,207.8c0.8-3.8,1.5-8,2.1-11.8l8.4-47.3c0.7-3.7,3.6-6.1,6.4-7.5
				c3.5-1.7,7-2.4,11.4-2.4c32.3,0,64.7-0.3,96.9-0.3c4.6,0,9.3-0.1,13.9-0.1c4.4,0,9.3,0.1,13.8-0.1c4.4-10.6,8.4-21.5,12.6-32.3
				c2.1-5.3,4.2-10.8,6.4-16.1c1.2-3.1,1.7-5.7,4.5-6.7c1.6-0.6,3.1-0.3,4.2,0.5c1.9,1.1,1.7,2.4,2.3,3.3l-1.2,50.2
				c0,1.9-0.3,5.5-0.1,7.2h2.7l0.1-6.1c29.1,0,58-0.3,87.1-0.2l70.9-0.2c4.1,0,5.8-0.8,8.6,2.1c1.2,1.1,1.3,1.7,2.1,3.3
				c0.5,2.2,0.7,2.1,0.3,4.5l-2.4,13.8c-0.8,4.3-2.8,14.7-3.2,18.4l3.8,1.8l0.3-0.5v0.6l15.4,7.2l-0.4,2.7
				c-0.3,0.4-2.8,15.4-2.9,17.1c-12.7-0.1-25.4-0.1-38.1-0.2c-2-0.1-36.9-0.4-38-0.1c-0.5-0.3-2.3-0.1-2.9-0.1l-57-0.4
				c-13.4,0-11.7-1.4-15.8,8.1l-3.5,8.5h10.5h4c0.1-0.4,1.3-3.7,1.9-3.9l136.6,0.8l-2,11.5l-23,8.2c-0.3,0.2-3.2,16.9-3.5,18.6
				c-0.7,3.2-1.2,6.2-1.7,9.4c-0.4,1.9-0.5,2.6-1.5,4.2c-1.9,3.1-6.1,6.5-9.8,6.5c-3.6,0.1-7.3,0.1-10.9,0.1c-7.3,0-14.6,0.1-22,0.1
				c-14.6,0-29.2,0.1-43.8,0.1l-32.9,0.1c-1.7,0-9.8,0.1-10.9,0l2.1-5.2c-4.6,0-3.6-0.8-5.3,3.4l-16.2,38.8c-1.1,2.4-2,4.7-3.1,7.1
				c-1.1,2.7-3.8,3.9-6.4,2.9c-0.3,0.1-0.4-0.3-0.1,0.3c-0.7-0.8-1.1-0.8-1.6-1.4c-2-2-1.6-3.9-1.5-7.1c0.3-11.3,0.7-23,0.8-34.2
				h-9.3c1.6-0.5,7,0.1,9.3-0.2v-4.3c-1.6-0.1-42.1,0.1-43.8,0.1l-119.7,0.4c-3.5,0-7.3,0.5-10.4-0.6c-2.3-1.2-3.6-2.2-4.6-4.7
				c-1.2-2.7-1.2-4.9-0.7-7.9c1.1-6.5,8.1-46.5,8.5-47.1c0.7,0.5,8.6,0.1,10.2,0.1h114.7c2.1,0,8.5,0.3,10.4-0.1
				c2.8-0.7,3.3-3.1,4.4-5.8c1.1-2.6,2-5,3.1-7.5l2.8-7.5c-0.8,0-3.3-0.3-4,0.3c-0.3-0.4,0.1-0.2-0.7-0.3h-9.7
				c-0.4,1.4-1.1,2.8-1.6,4.2c-0.1,0.4-1.2,3.8-1.7,3.9L48.5,207.8"/>
			<path id="path20" class="st2" d="M235,232.9c-8.4,1.1-13.8,7.4-14.9,16.1c-1.1,10,4.9,16.6,15,15.4c8.6-1,13.8-7.3,14.9-16
				C251.1,238.2,245.3,231.5,235,232.9L235,232.9z M190.4,249.4h2.5c0.1-1.2,0.8-4.2,0.8-4.7h-2.4L190.4,249.4z M140,264h7.7
				l2.1-11.5c7-0.1,4.5,3.2,6.2,11.5h8c-0.5-2.7-0.8-5.2-1.1-8c-0.4-3.8-0.7-4.4-2.8-6.3c1.2-0.9,4.5-1.5,6.1-5.3
				c0.7-1.4,0.8-3.2,0.5-4.9c-1.3-7.9-14.5-7.2-21.1-5.7L140,264z M346.6,262.3c2.9,1,2.7,1.6,7,2c2.8,0.3,5.6,0.1,8.1-0.6
				c4.2-1.4,7.7-4.7,7.6-10.3c-0.4-7.5-10.8-8.2-10.6-11.7c0.1-1.1,1.2-1.8,2.4-2.1c2.9-0.7,5.2,0.3,7.6,1.1l2.4-6.5
				c-1.1-0.3-2-0.8-3.3-1.1c-3.7-0.8-8.2-0.5-11.5,1.1c-6.4,3.2-8.5,11.5-0.9,16.1c1.6,1,4.5,2.3,5.3,3.6c1.3,2.1-0.7,3.9-4.2,3.8
				c-3.7-0.1-4.6-1.1-7-1.9L346.6,262.3z M215.8,256.9c-7.8,2.3-14.9,0-13-9.2c1.1-5.5,5-8.4,10.1-8.4c2.3,0,3.3,0.4,5.4,0.9
				c0.3-1.9,1.7-4.7,1.9-6.4c-10.1-3.6-23.1,0.6-25.8,13.1c-2.1,10.2,3.5,17.1,12.7,17.5c4.1,0.2,5.6-0.4,9.2-1.2L215.8,256.9z
				 M251.5,264h19.4l1.3-6.8h-11.5l4.5-23.9h-7.8L251.5,264z M324.9,240h7.6l-4.4,23.9h7.8l4.5-23.9h7.8l1.3-6.8h-23.2
				c-0.4,0.1-0.3,0.4-0.5,1.4L324.9,240z M297.8,264h19.9l1.3-6.6h-12.2l1.1-5.8h10.6c0.5-0.3,0.4-0.9,0.5-1.5
				c0.1-0.6,0.3-1.1,0.4-1.7c0.1-0.8,0.5-2.6,0.5-3.4h-10.8l0.9-5.1l11.5-0.1l1.2-6.6h-19.4L297.8,264z M274.6,264H294l1.3-6.7
				l-11.4-0.1l4.4-23.9h-7.8L274.6,264z M167.9,264h19.9l1.2-6.6h-12.1c0.1-1.1,0.4-2.6,0.7-3.7c0.5-2.4-0.1-2.1,2.4-2.1
				c2.8,0,6.1,0.1,8.9,0l1.2-6.6h-10.8l0.9-5.2h11.4l1.3-6.6h-19.4L167.9,264z M179.7,231.6c1.5,0,3.1,0,4.5,0c2.8,0,2,0,5.4-3.5
				c0.7-0.6,2-1.8,2.4-2.4h-8.1C183.5,225.9,180,231,179.7,231.6L179.7,231.6z M196.9,230.1c-0.5,0.9-2.3,2.2-2.7,2.9
				c-0.3,0.4-0.9,4.2-0.9,4.7h4.6c1.1-1.6,4.2-3.6,6.2-4.4c4.2-1.9,13.3-2.8,17.4,0.1l-1.2,3.9c4,0.8,2.4,0.9,4.5-1
				c4-3.5,9.3-5.4,15.1-4.5c4.9,0.7,7.8,3.2,9.7,6.7c0.7,1.4,0.3,1.1,1.3,2c0.5,0.5,1.1,1.1,1.6,1.9c0.4,0.6,0.7,1.4,1.1,2
				c0.1,0.1,0.1,0.1,0.1,0.1c0,0,0.1,0,0.1,0.1c0.5-3.7,1.5-7.5,2-11.2c0.1-0.6,0.1-1.4,0.7-1.4h9.8l-1.1,5.6l4.4,0.1l-3.3,18.4h7
				l-1.1,5.6h1.5l5.6-29.6h10.1l-0.9,5.7h4.4l-3.5,18.4h7l-0.9,5.6h1.3l5.6-29.5l21.6-0.1l-0.9,5.7c1.3,0,0.9-0.4,1.3-2.4
				c0.1-1,0.3-2.2,0.5-3.2h25.8l-0.9,5.7c1.5,0,1.2-2.3,5.3-4.3c2.5-1.3,4.9-1.9,8.1-1.9c2.8,0,7.2,0.6,9,2.2l-1.3,3.7
				c1.6,0.1,3.6,0.7,4.6,1.4l-2.5,6.7c-2-0.6-3.2-1.3-5.8-1.3c-1.2,0-2.3,0.1-3.1,0.6c1.2,1.2,4.2,2.2,5.6,5.9c0.7,2.2,4,2.5,4,7.6
				c0,10.5-11.8,12.3-19.6,10c-1.3-0.4-2.3-1-3.3-1.4l0.7-1.9c-2.5-0.3-4.4-1.4-6.4-2.5l3.3-8.6c2,0.9,2.9,1.6,5.3,2.2
				c1.9,0.4,5,0.7,5.8-0.9c-0.8-0.9-2-1.4-2.8-2.3c-0.5-0.7-0.5-0.6-1.5-1.1c-0.5-0.4-1.1-0.7-1.6-1c-0.9-0.6-2.1-1.6-2.8-2.5
				c-0.9-1.2-1.1-2.2-1.7-3.5l-4-0.1c-0.5,0.1-1.3,5.4-1.3,5.8c-0.4,2.1-0.8,4-1.2,6.1c-0.7,3.9-1.7,8.2-2.3,12.1h-8.1l0.7-3.7h-6.4
				c-0.1-2,3.2-16.7,3.7-20.4h-1.2l0.5-3.7H327l-0.5,2.7c-0.3,1.2-0.3,0.8-5,0.8l-1.1,4.7h4.4l-1.3,7l-3.1-0.1l-1.1,5.4h4.4
				c-0.1,1.1-0.4,2.4-0.5,3.5c-0.3,0.9-0.1,3.5-1.2,3.5c-4.4,0-16.3,0.1-19.8-0.1l0.5-3.6c-3.5,0-3.2-0.6-3.6,1.6
				c-0.1,0.6-0.3,1.3-0.4,2H279l0.7-3.7h-3.5c-0.1,1-0.3,2.8-0.7,3.6l-19.6,0.1l0.7-3.7h-6.4l0.1-1.2c-0.5,0.2-0.8,0.6-1.2,1
				c-0.5,0.4-0.8,0.7-1.3,1.1c-5.4,4.2-15,4.7-19.9-0.6c-0.4-0.4-0.7-0.9-1.2-1.1c-0.7-0.4-1.1-0.5-1.6-0.9
				c-9.8-6.2-4.9-17.9-5.3-19.1c-0.8-0.1-1.6-0.3-2.5-0.2c-6,0-10.4,4.7-10,10.9v1.1c5.6,1.3,7.3-0.6,9.4-0.9l0.7,6.5
				c0.3,0.1,0,0.1,0.4,0.1c0.9,0.1,1.9-0.6,2.7-0.6l0.7,6.7c-3.1,0.8-4.8,1.3-8.4,1.3c-5.4,0-8.9-1.9-11.4-4.7
				c-1.5-1.8-4.9-1.2-7.7-8.4c-0.8,0.3-2.3,0.1-3.2,0.1l-1.1,5.4h4.4l-1.2,7c-3.6,0.2-16.1,0.1-20.4,0.1l0.7-3.7h-4.6
				c0.1,1.4,0.4,2.4,0.8,3.7h-8.4c-0.3-0.5-0.5-3.6-0.9-3.7h-4.4c-0.8-1.3-0.7-4.1-1.1-5.5c-0.8,1.4-1.1,7.1-1.9,9.1l-8.1,0.1
				l0.7-3.7h-6.4l6.2-32.3c3.5-1.4,13-1.4,16.6-0.3c3.2,0.9,5.3,2.6,6.2,5.3c0.8,2.2,0.5,1.1,2.1,2.6c0.4,0.5,0.7,0.9,1.1,1.3
				l1.9-9.8h5.3c0.7-1.6,4.2-5.7,5.2-7.5h11.7c-0.4,0.7-4.6,4.8-5.4,5.6H196.9z"/>
			<path id="path22" class="st2" d="M270.8,217.5l54.8,0.3l89.5,0.5c0,1.4-3.1,18.5-3.3,18.9c-0.5,0.6-1.9,0.8-2.7,1.1l-8.6,3.2
				c-1.2,0.4-11.3,3.9-11.5,4.2l-5.3,28.6c-0.5,2.9-2.3,5.4-4.4,7c-2.4,1.9-4.4,3-8.4,3.1l-34,0.1c-30.1,0.2-60.4,0.3-90.5,0.3
				c-0.4,1.5-10.4,24.6-11.3,26.7c-1.9,4.4-3.7,8.9-5.6,13.3c-1.1,2.4-1.6,4.7-4,5.6c-2.8,1-5.6-0.8-6.1-2.8
				c-0.3-0.6-0.1-0.1,0.1-0.3c2.5,0.9,5.3-0.2,6.4-2.9c1.1-2.4,2-4.7,3.1-7.1l16.2-38.8c1.7-4.2,0.7-3.4,5.3-3.4l-2.1,5.2
				c1.1,0.1,9.2,0,10.9,0l32.9-0.1c14.6,0,29.2-0.1,43.8-0.1c7.4,0,14.7-0.1,22-0.1c3.6,0,7.3,0.1,10.9-0.1c3.7-0.1,8-3.4,9.8-6.5
				c0.9-1.6,1.1-2.2,1.5-4.2c0.5-3.2,1.1-6.2,1.7-9.4c0.3-1.7,3.2-18.4,3.5-18.6l23-8.2l2-11.5l-136.6-0.8c-0.5,0.1-1.7,3.5-1.9,3.9
				h-4L270.8,217.5z"/>
			<path id="path24" class="st2" d="M185,160.4l10.8,0.1l-6.2,33.5h10.9l6.4-33.5h11l1.7-9.5h-32.7L185,160.4z M218.3,193.9h27.9
				l1.7-9.2l-17-0.1l1.6-8.1h15.1l1.7-9.2l-15.1-0.1c0.1-1.3,1.1-6.3,1.5-7.2h15.9l1.7-9.2h-26.9L218.3,193.9z M147.2,160.3
				l10.8,0.1l-6.2,33.5h10.6c0.5-0.3,0.5-1.3,0.7-1.9l4.4-23.2c0.4-2.1,0.9-6.7,1.6-8.4c1.3-0.5,8.8,0.1,11-0.1l1.7-9.5H149
				L147.2,160.3z M220.4,154.9l3.6,0.1c0.3-1.3,0.5-2.6,0.8-3.9c0.4-2.3,0.1-1.7,2.8-1.7h27.6l-1.1,5.5l4.6,0.1
				c0.1,0.9-1.1,5.8-1.3,7.4c-0.1,0.6-0.1,1.9-0.7,2.2l-15.8,0.1l-0.3,1.2h10.5l-1.1,5.6h4.6c0.1,0.9-1.5,8.3-1.9,9.6h-15l-0.4,2.1
				h12.2l-1.1,5.6h4.6l-1.7,9.7h-28.3l0.5-2.9h-7.4l5.7-30.7h-10c-0.4,0.8-5.6,28.9-6.1,32.3c-0.3,1.7,0.5,1.3-4.9,1.3
				c-2.3,0-4.4,0-6.5,0l0.4-2.8l-7.4-0.1l5.7-30.7H190l0.5-2.9h-4.6l-0.5,2.9h-11l-6.4,33.5h-11.2l0.4-2.9h-7.4l5.7-30.6l-3.2-0.1
				l0.4-2.9h-7.4l2.4-12.6h35.8l-0.9,5.6h1.7l0.3-0.6c0.3-1.1,0.7-3.8,1.1-5h35.7L220.4,154.9z"/>
			<path id="path26" class="st2" d="M337.7,165.8H348l-1.1,5.6h4.6c0.1,1-1.5,8.1-1.7,9.6h-15.1l-0.4,2.1l12.2,0.1l-1.1,5.5h3.7
				l3.5-8.4c3.1,1.7,5.4,3,9.8,3.4c4.9,0.4,8.5-1.8,3.1-4.8c-4.4-2.5-5.2-2.4-8.9-6.1c-2.1-2.2-2.9-5.1-3.2-8.2l-15.7,0.1
				L337.7,165.8z M349.9,191.5c1.3,1.5,6.9,2.7,9.4,2.9c4,0.4,7.6,0.2,11.2-0.8c6.1-1.8,11-6.5,10.9-14.2c0-5.5-4.1-8.5-8-10.8
				c-2.1-1.2-6.8-3.2-6.8-5.6c-0.1-3.9,6.4-3.7,9-3.2c2.1,0.4,3.2,1,4.9,1.5l3.3-9c-3.7-1.5-5.8-2-10.4-2.1
				c-6.8-0.1-13.4,2.2-16.9,8c-1.6,2.7-2.3,7-0.9,10.2c2.7,6.8,10.8,8,13.4,11.4c1.2,1.5,0.5,3.3-0.7,4.4c-2.4,1.9-7.8,1.1-10.6,0.3
				c-2.7-0.8-2.9-1.2-4.5-1.9L349.9,191.5z M315.1,193.9h27.6c0.5-0.1,0.5-1.4,0.7-2.2l1.3-7l-16.9-0.1l1.5-8.1h15.1l1.7-9.2
				l-15.1-0.1l1.2-6.5c0.1-0.6,0.1-0.6,0.8-0.6c4.8-0.1,10.4,0.3,15.4,0l1.7-9.2h-26.9L315.1,193.9z M355.3,157.5
				c0.3-1.4,3.5-4.4,5-5.4c2-1.4,4.6-2.4,7.4-3c3.2-0.6,6.6-0.6,10-0.2c5.2,0.7,5.7,1.9,8.1,2.5l-1.2,3.3c0.4,0.1,2,0.6,2.4,0.7
				c0.9,0.3,1.6,0.6,2.4,0.9l-3.6,9.4c-1.1-0.2-2.1-0.9-3.3-1.1c-2.9-0.8-9.3-1.4-10.2,1.7c1.6,0.6,5.3,3.1,6.2,4.1
				c1.1,1,1.6,1.5,2.5,2.8c1.7,2.7,0.3,0.9,2.3,2.7c3.9,3.6,4.9,10,1.6,15.5c-2.4,3.9-7,6.7-13.4,7.5c-4.6,0.6-11.3-0.1-15.5-2.4
				c-0.9-0.5-1.1-0.3-1.1-1.3c-3.1-0.6-4.1-1.6-5.6-2.1l-0.9,5.2h-28.3l0.5-2.9h-7.4c0.4-2.9,1.1-6.1,1.6-9l6.8-35.7
				c0.3-1.4-0.1-1.5,1.3-1.5c9.4,0.1,19.5,0,29.1,0l-0.9,5.6h4.6L355.3,157.5"/>
			<path id="path28" class="st2" d="M5.9,216.9H35h-0.4l1.3-9.4l-28.7-0.1L5.9,216.9z M22.2,191.9c12.3-0.9,21.9,9.1,20.2,21.7
				c-1.5,10.6-10.8,19.7-22,20.5C8,234.9-1.5,225,0.2,212.4C1.7,201.7,11,192.6,22.2,191.9"/>
			<path id="path30" class="st3" d="M88.9,181.5c0.8-2.6-0.4-4.4-2.3-5.2c-2-0.9-4.8-0.8-7-0.8l-2,10.3
				C82.4,186,87.8,185.5,88.9,181.5z M81.2,167.5c4.1,0,9,0,10-3.7c0.5-2.2-0.7-3.7-2.3-4.4c-1.7-0.6-4.1-0.5-6.1-0.2L81.2,167.5
				L81.2,167.5z M73.4,151.6c4.6-0.7,8.9-1.1,13.8-1.1c17.7,0.4,17.7,12.9,11.7,17.9c-2.1,1.7-3.9,1.9-4.6,2.5
				c0.4,0.3,0.9,0.4,1.5,0.7c3.5,1.8,5.2,5.2,5,9.3c-0.3,5.1-3.5,8-6.5,9.9c-6.2,3.9-20.4,4.1-28.5,2.5c-0.1-0.7,3.3-18.6,3.9-20.9
				C70.8,165.6,72,158.5,73.4,151.6"/>
			<path id="path32" class="st3" d="M269.7,169.7c3.6,0,9.3,0.4,10.8-4.7c1.6-5.4-4.2-6.4-8.8-5.7L269.7,169.7z M262.4,151.8
				c2.4-0.4,4.4-0.9,7-1c6.5-0.5,14.9-0.4,19.6,3.7c4.1,3.7,5,13.5-4,18.2c-0.5,0.3-2.3,0.9-2.7,1.2c0.5,0.6,1.2,0.6,1.7,1.5
				c3.2,4.2,1.9,12.3,3.8,18.5h-11.3c-0.8-3.8-0.8-7.3-1.3-11.1c-0.7-4.7-2.5-5.2-7.3-5.1l-3.1,16.2h-10.8L262.4,151.8"/>
			<path id="path34" class="st2" d="M109.7,249.4c0.1,1.1-0.7,3.6-0.8,4.9c2.8,2.2,9.8,3.4,10.6,1.1l-2.8-2.4
				c-2.5-2.5-5.4-1.9-7.6-8.3c-0.7-0.1-1.5-0.1-2.1-0.1c-0.9,0.1-0.8,0.1-1.1,1.1c-0.1,1.3-0.5,2.5-0.7,3.7H109.7z M56.8,233.8
				L51,263.5c5.8,1.1,14.5,1.1,19.6-0.9c12.2-4.7,14.3-21.8,5-27.4c-4.8-2.9-12.3-2.5-17.9-1.7L56.8,233.8z M109.1,255.9
				c-0.4,0.5-2.4,5.5-2.5,6.5c2.3,1.1,3.7,1.6,6.8,2c7.3,0.9,16.1-2,15.8-10.8c-0.3-7.7-10.8-8.2-10.6-11.8c0-1.2,1.3-1.9,2.4-2.1
				c2.9-0.6,5,0.3,7.4,1c0.4-0.5,2.4-5.6,2.5-6.5c-4.8-1.8-10.2-2.2-14.9,0.1c-6.1,3-8.6,11.3-1.2,16.1c1.7,1.1,4.2,2.1,5.4,3.5
				C122.2,256.2,118.5,260.2,109.1,255.9L109.1,255.9z M102.7,264l1.3-6.6H91.8l1.2-5.8h10.8c0.3-1.4,1.3-5.7,1.2-6.6H94.2
				c0.1-0.9,0.3-1.8,0.5-2.7c0.1-0.8,0.3-2.4,0.7-2.5h11.3l1.2-6.6H88.8c-0.4,0.3-0.4,1.1-0.5,1.6c-0.9,4.9-5.2,27.1-5.4,29.2H102.7
				z M108.3,237.7h2.3c5.2-8.5,18.9-6.6,21.8-4l-1.3,3.7c2,0.2,3.1,0.7,4.6,1.3l-2.5,6.9c-2.5-0.7-5.3-2.2-8.9-0.7
				c0.7,0.9,4.1,2.2,5.4,5.7c0.7,1.7,0.1,0.7,1.6,2.2c1.3,1.4,2.3,2.6,2.5,4.8c0.7,6.2-3.8,10.7-10.5,11.6
				c-3.6,0.5-10.4-0.2-12.5-2.2l0.7-1.6l-3.2-0.8l-0.8,4.3l-20.3,0.1l0.7-3.7h-6.4l0.3-2c-1.2,0.6-3.2,4.2-10.9,5.4
				c-3.8,0.6-11.7,0.6-15.3-0.3c-0.1-0.4,0-1,0.1-1.5c0.1-0.5,0.3-1,0.3-1.6c-2.3-0.1-4.2-0.4-6.2-0.8c0.4-2.6,1.1-5.4,1.5-7.9
				l4.6-23.8c0.3-0.7,8.6-1,9.8-1c3.5,0,6.5,0.5,9.3,1.7c2.4,1.1,4.5,3,5.7,5c1.6,2.5-0.3,0.6,2.3,3.2c1.9,2,1.2,1.9,2.1,3.2
				l2.5-12.9l21.8-0.1L108.3,237.7z"/>
			<path id="path36" class="st2" d="M102.6,193.9h11.8c0.4-1.5,2.4-5.7,3.2-7.7c0.3-0.6,0.5-2.1,1.2-2.4h11.2l0.5,10.1h11.4l-4.5-43
				h-14.1c-0.5,0.1-2.4,4.4-2.7,5.1c-0.9,1.9-1.7,3.7-2.7,5.4c-3.3,6.7-6.9,14.6-10.2,21.6L102.6,193.9z M73.4,151.6
				c-1.3,6.9-2.5,14-3.8,20.9c-0.5,2.3-4,20.2-3.9,20.9c8.1,1.6,22.3,1.4,28.5-2.5c3.1-1.9,6.2-4.8,6.5-9.9c0.1-4.1-1.6-7.5-5-9.3
				c-0.5-0.3-1.1-0.4-1.5-0.7c0.8-0.6,2.5-0.8,4.6-2.5c6-5,6-17.5-11.7-17.9C82.2,150.5,78,150.9,73.4,151.6L73.4,151.6z M101,174.9
				c0.4,1.1,0.7,1.2,1.5,1.8c3.2,2.3,3.2,5.4,3.7,6.2c0.8-2.1,6.8-14.1,8-16.8c2.5-5.6,5.3-11.3,8-16.8h16.6l0.7,5.6h3.3l4.8,43.4
				h-11.9l-0.1-2.8c-1.5-0.4-5.2,0.3-6.4-0.2l-0.4-7.1c-5.4-0.1-4.2-0.7-5.6,2.3l-3.3,7.8h-12.1l1.3-2.9h-8.5c-0.4-0.2,0,0-0.1-0.3
				c0,0,0-0.1-0.1-0.1v-0.2c-0.8,0.9-4.2,2.2-5.8,2.6c-2.4,0.6-4.9,0.9-7.6,1.1c-5.3,0.3-10.9,0.1-16.1-0.8l0.3-2.2
				c-1.9-0.1-5.4-0.4-7.2-1c0-1.1,4.5-24,4.8-25.7l3.1-16.1c0.1-0.5,0.1-1.1,0.3-1.6c0.1-0.9,0.1-0.9,0.9-1c10-1.9,25.8-2.6,30,6
				c0.3,0.6,0.3,0.8,0.7,1.1c0.8,0.8,1.7,1,2.9,2.8c1.1,1.7,1.7,3.7,1.5,6.2C107.2,172.4,102.4,173.7,101,174.9"/>
			<path id="path38" class="st2" d="M254.3,193.9h10.8l3.1-16.2c4.8-0.1,6.6,0.4,7.3,5.1c0.5,3.8,0.5,7.3,1.3,11.1H288
				c-2-6.2-0.7-14.3-3.8-18.5c-0.5-0.9-1.2-0.9-1.7-1.5c0.4-0.3,2.1-0.9,2.7-1.2c9-4.7,8.1-14.6,4-18.2c-4.8-4.2-13.1-4.2-19.6-3.7
				c-2.7,0.1-4.6,0.6-7,1L254.3,193.9z M305.1,193.9c0.5-0.1,0.5-1.6,0.8-2.4l6.6-35.2c0.3-1.4,0.9-4.2,0.9-5.4l-9.6-0.1
				c-1.6,0-1.2-0.6-2,3.9l-4.9,26.2c-0.8,4.3-1.9,8.7-2.5,13H305.1z M314.4,154.9l4.6,0.1c0,1-0.8,4.2-0.9,5.4l-5.2,27.2
				c-0.7,3.5-1.3,7.4-2.1,10.8h-11.2l0.4-2.9h-7.2c0,1.1,0.4,1.9,0.5,2.9h-11.5l-0.5-2.9h-5.7c-0.7-2.3-0.9-4-1.2-6.5
				c-0.1-1.1-0.5-6.2-0.8-6.8c-0.7,0.9-2.5,14.3-3.2,16.1l-11.2,0.1l0.5-2.9h-7.4l8.6-45c1.2-0.2,2.5-0.6,3.9-0.8
				c4.1-0.6,9.6-0.9,13.5-0.6c6.1,0.5,10.5,2.4,13.1,6.1c1.6,2.2,0.1,1.2,2,2.7c5.8,4.5,5.2,14.2-2.3,18.6c-0.8,0.5-2.8,1.2-3.2,1.6
				c4,1.9,3.8,11.3,4.6,16.6c0.4-0.8,5.7-30.5,6.5-34.1c0.7-3.7,1.2-7.7,2.1-11.4h13.9L314.4,154.9z"/>
			<path id="path40" class="st3" d="M121.7,175.6h7.8c0-1.8-0.8-16-1.2-16.6c-1.1,2.6-2,5.7-3.2,8.3L121.7,175.6z M107.7,183
				c3.3-7,6.9-14.8,10.2-21.6c0.9-1.8,1.7-3.6,2.7-5.4c0.3-0.6,2.1-5,2.7-5.1h14.1l4.5,43h-11.4l-0.5-10.1h-11.2
				c-0.7,0.3-0.9,1.7-1.2,2.4c-0.8,2-2.8,6.2-3.2,7.7h-11.8L107.7,183z"/>
			<path id="path42" class="st2" d="M436.6,207.9h-9.2c-0.4,0.1-0.8,4.2-0.9,4.9c-0.3,1.6-0.5,3.4-0.7,5.1h9.3l-1.2,9.6h10
				c0.5-2.9,0.7-6.2,1.2-9.1c0.1-0.6,0-0.5,0.7-0.6l9.3,0.1l1.3-10h-9.7l1.3-9.4h-10L436.6,207.9z M462.1,213.2
				c-1.3,10.8-10.5,19.9-21.6,20.8c-12.3,1.1-22-8.7-20.6-21.3c1.3-10.8,10.5-19.8,21.5-20.8C453.8,190.8,463.7,200.6,462.1,213.2"
				/>
			<path id="path44" class="st3" d="M323.2,150.9h26.9l-1.7,9.2c-5,0.3-10.6-0.1-15.4,0c-0.7,0-0.7,0-0.8,0.6l-1.2,6.5l15.1,0.1
				l-1.7,9.2h-15.1l-1.5,8.1l16.9,0.1l-1.3,7c-0.1,0.8-0.1,2.1-0.7,2.2h-27.6L323.2,150.9z"/>
			<path id="path46" class="st3" d="M226.4,150.9h26.9l-1.7,9.2h-15.9c-0.4,0.9-1.3,5.9-1.5,7.2l15.1,0.1l-1.7,9.2h-15.1l-1.6,8.1
				l17,0.1l-1.7,9.2h-27.9L226.4,150.9z"/>
			<path id="path48" class="st4" d="M174.2,207.8c0.5-0.1,1.6-3.5,1.7-3.9c0.5-1.4,1.2-2.8,1.6-4.2h9.7c0.8,0.1,0.4-0.1,0.7,0.3
				c-0.5,1-1.3,3.4-1.9,4.7l-3.6,9.4c-0.7,1.6-1.6,2.7-3.3,3.3c-1.6,0.5-10.4,0.2-12.7,0.2c-21.6,0-43.9,0.3-65.4,0
				c0.4-0.2,1.6-0.1,2.1-0.1v-9.2c-9-0.2-18.3,0-27.3-0.1L50,208c-1.2,0-1.2,0.1-1.5-0.2L174.2,207.8z"/>
			<path id="path50" class="st3" d="M353.3,182.5c1.6,0.6,1.9,1.1,4.5,1.9c2.8,0.8,8.2,1.6,10.6-0.3c1.2-1.1,1.9-2.9,0.7-4.4
				c-2.7-3.4-10.8-4.6-13.4-11.4c-1.3-3.2-0.7-7.5,0.9-10.2c3.5-5.8,10.1-8.1,16.9-8c4.5,0.1,6.6,0.6,10.4,2.1l-3.3,9
				c-1.7-0.5-2.8-1.1-4.9-1.5c-2.7-0.4-9.2-0.6-9,3.2c0,2.4,4.6,4.4,6.8,5.6c3.8,2.3,8,5.3,8,10.8c0.1,7.7-4.8,12.4-10.9,14.2
				c-3.6,1-7.2,1.2-11.2,0.8c-2.5-0.3-8.1-1.4-9.4-2.9L353.3,182.5"/>
			<path id="path52" class="st2" d="M207.8,284.8c-3.5-0.1-7,0-10.5,0c-45.9,0-92,0.4-137.9,0.4c-2.3,0-8.6,0.3-10.4-0.1
				c-2.8-0.6-5-2.7-5.8-4.9c3.1,1.1,6.9,0.6,10.4,0.6l119.7-0.4c1.7,0,42.2-0.3,43.8-0.1v4.3C214.9,284.8,209.4,284.3,207.8,284.8"
				/>
			<path id="path54" class="st3" d="M186.9,150.9h32.7l-1.7,9.5h-11l-6.4,33.5h-10.9l6.2-33.5l-10.8-0.1L186.9,150.9z"/>
			<path id="path56" class="st3" d="M149,150.9h32.7l-1.7,9.5c-2.3,0.3-9.7-0.4-11,0.1c-0.7,1.6-1.2,6.3-1.6,8.4l-4.4,23.2
				c-0.1,0.6-0.1,1.6-0.7,1.9h-10.6l6.2-33.5l-10.8-0.1L149,150.9z"/>
			<path id="path58" class="st5" d="M257.4,224.5l3.5-8.5c4.1-9.5,2.4-8.1,15.8-8.1l57,0.4c0.7,0,2.4-0.1,2.9,0.1
				c-1.3,0.3-15.8,0-18.5-0.1v9.2l6.6,0.1h0.4c0.1,0.1-0.3-0.4,0.5,0.2l-54.8-0.3l-2.9,7H257.4z"/>
			<path id="path60" class="st3" d="M60.1,257.7c6.8,1.1,11.2-2.7,12.3-7.9c1.9-7.2-1.5-11.5-8.9-10.5L60.1,257.7z M57.8,233.5
				c5.6-0.8,13.1-1.1,17.9,1.7c9.3,5.6,7.2,22.7-5,27.4c-5.2,2-13.8,2-19.6,0.9l5.7-29.8L57.8,233.5z"/>
			<path id="path62" class="st3" d="M241.7,247.6c0.3-2.4,0-5.1-1.2-6.7c-1.2-1.4-3.6-2.2-6.1-1.4c-5.6,1.9-7.7,13.2-4.5,16.7
				c1.3,1.4,3.5,2.3,6,1.5C239.6,256.5,241.2,252.2,241.7,247.6L241.7,247.6z M235,232.9c10.2-1.4,16.1,5.4,15,15.5
				c-1.1,8.7-6.2,15-14.9,16c-10.1,1.2-16.1-5.4-15-15.4C221.2,240.2,226.7,233.9,235,232.9"/>
			<path id="path64" class="st3" d="M151,246.6c2.7,0,6.8,0.2,7.7-3.4c0.9-3.6-3.1-4.9-6.2-3.9L151,246.6z M145.7,233.9
				c6.6-1.5,19.8-2.2,21.1,5.7c0.3,1.6,0.1,3.4-0.5,4.9c-1.6,3.8-4.9,4.4-6.1,5.3c2.1,1.9,2.4,2.5,2.8,6.3c0.3,2.8,0.5,5.3,1.1,8h-8
				c-1.7-8.4,0.8-11.6-6.2-11.5l-2.1,11.5H140L145.7,233.9"/>
			<path id="path66" class="st2" d="M187.9,200c0.7-0.6,3.2-0.3,4-0.3l-2.8,7.5c-1.1,2.5-2,4.9-3.1,7.5c-1.1,2.7-1.6,5.1-4.4,5.8
				c-1.9,0.4-8.2,0.1-10.4,0.1H56.6c-1.6,0-9.6,0.4-10.2-0.1l0.4-2.9H101c21.5,0.3,43.8,0,65.4,0c2.4,0,11.2,0.3,12.7-0.2
				c1.7-0.6,2.7-1.6,3.3-3.3l3.6-9.4C186.6,203.3,187.4,201,187.9,200"/>
			<path id="path68" class="st6" d="M438,198.5h10l-1.3,9.4h9.7l-1.3,10l-9.3-0.1c-0.7,0.1-0.5,0-0.7,0.6c-0.5,2.9-0.7,6.2-1.2,9.1
				h-10l1.2-9.6h-9.3c0.1-1.7,0.4-3.4,0.7-5.1c0.1-0.6,0.5-4.7,0.9-4.9h9.2L438,198.5z"/>
			<path id="path70" class="st3" d="M294.5,193.9c0.7-4.3,1.7-8.7,2.5-13l4.9-26.2c0.8-4.4,0.4-3.9,2-3.9l9.6,0.1
				c0,1.3-0.7,4.1-0.9,5.4l-6.6,35.2c-0.3,0.8-0.3,2.3-0.8,2.4L294.5,193.9"/>
			<path id="path72" class="st3" d="M82.8,264c0.3-2.1,4.5-24.2,5.4-29.2c0.1-0.5,0.1-1.3,0.5-1.6h19.1l-1.2,6.6H95.4
				c-0.4,0.1-0.5,1.7-0.7,2.5c-0.3,0.9-0.4,1.7-0.5,2.7h10.8c0.1,0.9-0.9,5.2-1.2,6.6H93l-1.2,5.8H104l-1.3,6.6H82.8"/>
			<path id="path74" class="st3" d="M303.6,233.2h19.4l-1.2,6.6l-11.5,0.1l-0.9,5.1H320c0,0.8-0.4,2.6-0.5,3.4
				c-0.1,0.6-0.3,1.1-0.4,1.7c-0.1,0.6,0,1.2-0.5,1.5h-10.6l-1.1,5.8h12.2l-1.3,6.6h-19.9L303.6,233.2z"/>
			<path id="path76" class="st3" d="M173.6,233.2H193l-1.3,6.6h-11.4l-0.9,5.2H190l-1.2,6.6c-2.8,0.1-6.1,0-8.9,0
				c-2.5,0-1.9-0.4-2.4,2.1c-0.3,1.1-0.5,2.6-0.7,3.7H189l-1.2,6.6h-19.9L173.6,233.2z"/>
			<path id="path78" class="st3" d="M109.1,255.9c9.4,4.3,13.1,0.4,11.2-2.1c-1.2-1.4-3.7-2.4-5.4-3.5c-7.4-4.8-4.9-13,1.2-16.1
				c4.6-2.2,10.1-1.9,14.9-0.1c-0.1,0.9-2.1,5.9-2.5,6.5c-2.4-0.7-4.5-1.6-7.4-1c-1.1,0.2-2.4,0.9-2.4,2.1
				c-0.1,3.6,10.4,4.1,10.6,11.8c0.3,8.8-8.5,11.7-15.8,10.8c-3.1-0.4-4.5-0.9-6.8-2C106.7,261.4,108.7,256.4,109.1,255.9"/>
			<path id="path80" class="st3" d="M349.2,255.9c2.4,0.8,3.3,1.8,7,1.9c3.6,0.1,5.6-1.7,4.2-3.8c-0.8-1.3-3.7-2.6-5.3-3.6
				c-7.6-4.6-5.4-12.9,0.9-16.1c3.3-1.6,7.8-1.9,11.5-1.1c1.3,0.3,2.3,0.8,3.3,1.1l-2.4,6.5c-2.4-0.8-4.6-1.8-7.6-1.1
				c-1.2,0.3-2.3,0.9-2.4,2.1c-0.1,3.5,10.2,4.2,10.6,11.7c0.1,5.6-3.3,8.9-7.6,10.3c-2.5,0.8-5.3,0.9-8.1,0.6c-4.4-0.4-4.1-1-7-2
				L349.2,255.9"/>
			<path id="path82" class="st3" d="M216.3,263.3c-3.6,0.9-5,1.4-9.2,1.2c-9.3-0.4-14.9-7.3-12.7-17.5c2.7-12.5,15.7-16.7,25.8-13.1
				c-0.1,1.6-1.6,4.5-1.9,6.4c-2.1-0.4-3.2-0.9-5.4-0.9c-5,0-9,2.9-10.1,8.4c-1.9,9.2,5.2,11.5,13,9.2L216.3,263.3"/>
			<path id="path84" class="st3" d="M325.9,234.6c0.3-1.1,0.1-1.4,0.5-1.4h23.2l-1.3,6.8h-7.8l-4.5,23.9h-7.8l4.4-23.9h-7.6
				L325.9,234.6z"/>
			<path id="path86" class="st3" d="M280.5,233.2h7.8l-4.4,23.9l11.4,0.1L294,264h-19.4L280.5,233.2z"/>
			<path id="path88" class="st3" d="M257.4,233.2h7.8l-4.5,23.9h11.5l-1.3,6.8h-19.4L257.4,233.2z"/>
			<path id="path90" class="st6" d="M7.2,207.5l28.7,0.1l-1.3,9.4H35H5.9L7.2,207.5z"/>
			<path id="path92" class="st1" d="M365.5,178.9c5.4,3,1.9,5.2-3.1,4.8c-4.4-0.4-6.8-1.6-9.8-3.4l-3.5,8.4h-3.7l1.1-5.5l-12.2-0.1
				l0.4-2.1h15.1c0.3-1.5,1.9-8.6,1.7-9.6H347l1.1-5.6h-10.4l0.1-1.2l15.7-0.1c0.3,3.2,1.1,6.1,3.2,8.2
				C360.4,176.4,361.2,176.4,365.5,178.9"/>
			<path id="path94" class="st2" d="M232.8,144.3h-2.7c-0.1-1.6,0.1-5.3,0.1-7.2l1.2-50.2c3.6,1.8,2.5,6.7,2.4,11.3l-0.5,26.7
				c-0.1,4.3-0.1,9-0.4,13.3L232.8,144.3z"/>
			<path id="path96" class="st2" d="M400.2,181.6l-3.8-1.8c0.4-3.7,2.4-14.1,3.2-18.4l2.4-13.8c0.4-2.4,0.3-2.3-0.3-4.5
				c1.9,0.8,4.5,4.4,4,7.8c-0.4,3.3-1.2,6.7-1.7,10.1c-1.2,6.6-2.5,13.3-3.5,20L400.2,181.6z"/>
			<path id="path98" class="st2" d="M239.2,252.6c1.2-2.6,1.6-5.4,1.3-8.5c-4.9,0-7.7,7.2-7.3,12.6
				C236.5,257.2,238.2,255.1,239.2,252.6z M241.7,247.6c-0.5,4.7-2.1,9-5.8,10.2c-2.5,0.8-4.6-0.1-6-1.5c-3.2-3.5-1.1-14.8,4.5-16.7
				c2.5-0.8,4.9-0.1,6.1,1.4C241.7,242.5,242,245.1,241.7,247.6"/>
			<path id="path100" class="st2" d="M66,256c5.4-1.3,6.4-10.7,5.4-11.8c-0.4-0.4-1.5-0.2-2-0.2c-0.8,0.1-1.2-0.1-1.3,0.6L66,256z
				 M63.5,239.4c7.4-1.1,10.8,3.2,8.9,10.5c-1.2,5.2-5.6,9-12.3,7.9L63.5,239.4"/>
			<path id="path102" class="st7" d="M271.7,159.4c4.5-0.7,10.4,0.2,8.8,5.7c-1.5,5-7.2,4.7-10.8,4.7L271.7,159.4"/>
			<path id="path104" class="st2" d="M213.5,144.3h-3.7c0.4-1.5,10.8-27.6,11-28c0.1,1.4,0,9.2-0.3,10.2l-4.5,11.5L213.5,144.3z"/>
			<path id="path106" class="st2" d="M87.6,179.9H85l-0.8,3.9C86,183.3,87.8,181.9,87.6,179.9z M79.6,175.4c2.3,0,5-0.1,7,0.8
				c1.9,0.8,3.1,2.7,2.3,5.2c-1.1,4.1-6.5,4.6-11.3,4.2L79.6,175.4z"/>
			<path id="path108" class="st2" d="M412.5,208.6c0.1-1.6,2.7-16.7,2.9-17.1l4,1.6l-2.7,15.4H412.5"/>
			<path id="path110" class="st2" d="M82.8,159.2c2-0.3,4.4-0.4,6.1,0.2c1.6,0.6,2.8,2.2,2.3,4.4c-0.9,3.7-5.8,3.7-10,3.7
				L82.8,159.2z"/>
			<path id="path112" class="st1" d="M105.3,249.4c0.1-1.2,0.5-2.4,0.7-3.7c0.3-1,0.1-1,1.1-1.1c0.7,0,1.5,0,2.1,0.1
				c2.1,6.4,5,5.8,7.6,8.3l2.8,2.4c-0.8,2.4-7.8,1.1-10.6-1.1c0.1-1.3,0.9-3.8,0.8-4.9L105.3,249.4"/>
			<path id="path114" class="st2" d="M125.1,167.3c1.2-2.7,2.1-5.7,3.2-8.3c0.4,0.6,1.2,14.8,1.2,16.6h-7.8L125.1,167.3z"/>
			<path id="path116" class="st1" d="M233.2,256.7c-0.4-5.4,2.4-12.6,7.3-12.6c0.3,3.1-0.1,5.9-1.3,8.5
				C238.2,255.1,236.5,257.2,233.2,256.7"/>
			<path id="path118" class="st2" d="M231.9,284.5h-1.7c-0.7,0.1-0.4,0-0.7,0.2c0.1,1.1-0.1,3.2-0.1,4.9c0.1,1.1-2,5.5-2.5,6.3
				l0.3-21.1l2.7-0.1v5.3h3.6L231.9,284.5z"/>
			<path id="path120" class="st2" d="M152.5,239.3c3.2-1,7.2,0.4,6.2,3.9c-0.9,3.6-5,3.4-7.7,3.4L152.5,239.3"/>
			<path id="path122" class="st3" d="M179.7,231.6c0.3-0.6,3.9-5.7,4.2-6h8.1c-0.4,0.6-1.7,1.9-2.4,2.4c-3.5,3.5-2.7,3.5-5.4,3.5
				C182.7,231.6,181.1,231.6,179.7,231.6"/>
			<path id="path124" class="st1" d="M68.2,244.7c0.1-0.8,0.5-0.6,1.3-0.6c0.5,0,1.6-0.2,2,0.2c0.9,1.1,0,10.5-5.4,11.8L68.2,244.7z
				"/>
			<path id="path126" class="st6" d="M220.6,126.5c0.3,0.6-0.1,10.1-0.1,11.8c-0.7,0-3.8,0.2-4.4-0.2L220.6,126.5z"/>
			<path id="path128" class="st1" d="M191.4,244.7h2.4c0,0.6-0.7,3.5-0.8,4.7h-2.5L191.4,244.7z"/>
			<path id="path130" class="st1" d="M85,179.9h2.5c0.3,2-1.6,3.4-3.3,3.9L85,179.9z"/>
		</g>
	</g>
</g>
</svg>
