<?xml version="1.0" encoding="utf-8"?>
<!-- Generator: Adobe Illustrator 23.0.3, SVG Export Plug-In . SVG Version: 6.00 Build 0)  -->
<svg version="1.1"
	 id="Calque_1" xmlns:cc="http://creativecommons.org/ns#" xmlns:dc="http://purl.org/dc/elements/1.1/" xmlns:inkscape="http://www.inkscape.org/namespaces/inkscape" xmlns:rdf="http://www.w3.org/1999/02/22-rdf-syntax-ns#" xmlns:sodipodi="http://sodipodi.sourceforge.net/DTD/sodipodi-0.dtd" xmlns:svg="http://www.w3.org/2000/svg"
	 xmlns="http://www.w3.org/2000/svg" xmlns:xlink="http://www.w3.org/1999/xlink" x="0px" y="0px" viewBox="0 0 100 98.4"
	 style="enable-background:new 0 0 100 98.4;" xml:space="preserve">
<g transform="translate(0,-952.36218)">
	<path d="M17.8,965.4c-1,0.1-1.8,1-1.8,2v8H8c-1,0-2,1-2,2v59c0,1,1,2,2,2h84c1,0,2-1,2-2v-59c0-1-1-2-2-2h-8v-8c0-1-0.8-1.9-1.8-2
		c-0.1,0-0.1,0-0.2,0H64c-1,0-2,1-2,2v8H38v-8c0-1-1-2-2-2H18C17.9,965.4,17.9,965.4,17.8,965.4z M20,969.4h14v6H20V969.4z
		 M66,969.4h14v6H66V969.4z M10,979.4h80v4H10V979.4z M10,987.4h80v39H10V987.4z M72.8,995.8c-1,0.1-1.8,1-1.8,2v7h-7
		c-0.1,0-0.1,0-0.2,0c-1,0-2,1-1.9,2.1c0,1,1,2,2.1,1.9h7v7c0,1.1,0.9,2,2,2s2-1,2-2v-7h7c1.1,0,2-0.9,2-2c0-1.1-1-2-2-2h-7v-7
		C75,996.7,73.9,995.7,72.8,995.8z M17.8,1004.9c-1,0-2,1-1.9,2.1c0,1,1,2,2.1,1.9h18c1.1,0,2-0.9,2-2s-1-2-2-2H18
		C17.9,1004.9,17.9,1004.9,17.8,1004.9z M10,1030.4h80v4H10V1030.4z"/>
</g>
</svg>
