<?xml version="1.0" encoding="utf-8"?>
<!-- Generator: Adobe Illustrator 23.0.3, SVG Export Plug-In . SVG Version: 6.00 Build 0)  -->
<svg version="1.1" id="Calque_1" xmlns="http://www.w3.org/2000/svg" xmlns:xlink="http://www.w3.org/1999/xlink" x="0px" y="0px"
	 viewBox="0 0 64 64.8" style="enable-background:new 0 0 64 64.8;" xml:space="preserve">
<path d="M24.9,42c0,2.8,2.2,5,5,5s5-2.2,5-5s-2.2-5-5-5C27.2,37,24.9,39.2,24.9,42z M28.9,39.2V42h2v-2.8c1.6,0.6,2.4,2.3,1.8,3.8
	c-0.6,1.6-2.3,2.4-3.8,1.8c-1.6-0.6-2.4-2.3-1.8-3.8C27.4,40.2,28.1,39.5,28.9,39.2z"/>
<path d="M13,47c2.8,0,5-2.2,5-5s-2.2-5-5-5s-5,2.2-5,5C8,44.8,10.2,47,13,47z M13,39c1.3,0,2.4,0.8,2.8,2H13v2h2.8
	c-0.6,1.6-2.3,2.4-3.8,1.8c-1.6-0.6-2.4-2.3-1.8-3.8C10.6,39.8,11.7,39,13,39z"/>
<rect x="9" y="30" width="2" height="2"/>
<rect x="13" y="30" width="2" height="2"/>
<path d="M53,8c-5,0-9,4-9,9c0,3.4,2,6.6,5.1,8.1L50,44c0,0.5,0.5,1,1,1h1v13c0,1.1-0.9,2-2,2H35c-1.1,0-2-0.9-2-2v-3h1
	c0.6,0,1-0.4,1-1v-3h5c0.6,0,1-0.4,1-1V3c0-0.6-0.4-1-1-1H3C2.4,2,2,2.4,2,3v47c0,0.6,0.4,1,1,1h5v3c0,0.6,0.4,1,1,1h1v3
	c0,1.1-0.9,2-2,2H2v2h6c2.2,0,4-1.8,4-4v-3h1c0.6,0,1-0.4,1-1v-3h15v3c0,0.6,0.4,1,1,1h1v3c0,2.2,1.8,4,4,4h15c2.2,0,4-1.8,4-4V45h1
	c0.5,0,1-0.4,1-1l0.9-19c4.5-2.2,6.3-7.6,4.1-12C59.6,10,56.4,8,53,8z M4,4h35v45H4V4z M12,53h-2v-2h2V53z M33,51v2h-2v-2H33z
	 M54,43h-2.1l-0.9-17.2c1.3,0.3,2.6,0.3,3.8,0L54,43z M53,24c-3.9,0-7-3.1-7-7s3.1-7,7-7s7,3.1,7,7C60,20.9,56.9,24,53,24z"/>
<path d="M53,12.3c-2.6,0-4.7,2.1-4.7,4.7s2.1,4.7,4.7,4.7s4.7-2.1,4.7-4.7C57.7,14.4,55.6,12.3,53,12.3z M53,19.7
	c-1.5,0-2.7-1.2-2.7-2.7s1.2-2.7,2.7-2.7c1.5,0,2.7,1.2,2.7,2.7C55.7,18.5,54.5,19.7,53,19.7z"/>
<path d="M22.7,19.3c-0.4-0.4-1-0.4-1.5,0c0,0,0,0,0,0C20.7,19.9,18,23.1,18,25c0,2.2,1.8,4,4,4s4-1.8,4-4
	C26,23.1,23.3,19.9,22.7,19.3z M22,27c-1.1,0-2-0.9-2-2c0-0.6,0.9-2.1,2-3.5c1.1,1.3,2,2.8,2,3.5C24,26.1,23.1,27,22,27z"/>
<path d="M15.2,15.4l1.7,1.1l1-1.5c0.8-1.2,0.8-2.9,0-4.1c-0.4-0.6-0.4-1.3,0-1.9l1-1.5l-1.7-1.1l-1,1.5c-0.8,1.2-0.8,2.9,0,4.1
	c0.4,0.6,0.4,1.3,0,1.9L15.2,15.4z"/>
<path d="M20.2,15.4l1.7,1.1l1-1.5c0.8-1.2,0.8-2.9,0-4.1c-0.4-0.6-0.4-1.3,0-1.9l1-1.5l-1.7-1.1l-1,1.5c-0.8,1.2-0.8,2.9,0,4.1
	c0.4,0.6,0.4,1.3,0,1.9L20.2,15.4z"/>
<path d="M25.2,15.4l1.7,1.1l1-1.5c0.8-1.2,0.8-2.9,0-4.1c-0.4-0.6-0.4-1.3,0-1.9l1-1.5l-1.7-1.1l-1,1.5c-0.8,1.2-0.8,2.9,0,4.1
	c0.4,0.6,0.4,1.3,0,1.9L25.2,15.4z"/>
</svg>
