<?xml version="1.0" encoding="utf-8"?>
<!-- Generator: Adobe Illustrator 23.0.3, SVG Export Plug-In . SVG Version: 6.00 Build 0)  -->
<svg version="1.1" id="Calque_1" xmlns:sketch="http://www.bohemiancoding.com/sketch/ns"
	 xmlns="http://www.w3.org/2000/svg" xmlns:xlink="http://www.w3.org/1999/xlink" x="0px" y="0px" viewBox="0 0 96 95"
	 style="enable-background:new 0 0 96 95;" xml:space="preserve">
<style type="text/css">
	.st0{fill-rule:evenodd;clip-rule:evenodd;fill:#FFFFFF;}
	.st1{fill-rule:evenodd;clip-rule:evenodd;}
</style>
<title>add</title>
<desc>Created with Sketch.</desc>
<g sketch:type="MSPage">
	<g transform="translate(-3660.000000, -369.000000)" sketch:type="MSLayerGroup">
		<circle class="st0" cx="3707.7" cy="416.5" r="42.3"/>
		<path sketch:type="MSShapeGroup" class="st0" d="M3711.4,412.8v-14.6c0-2.4-2-4.4-4.4-4.4s-4.4,2-4.4,4.4v14.6H3688
			c-2.4,0-4.4,2-4.4,4.4s2,4.4,4.4,4.4h14.6v14.6c0,2.4,2,4.4,4.4,4.4s4.4-2,4.4-4.4v-14.6h14.6c2.4,0,4.4-2,4.4-4.4s-2-4.4-4.4-4.4
			H3711.4z M3707.7,464c26.2,0,47.5-21.3,47.5-47.5S3734,369,3707.7,369c-26.2,0-47.5,21.3-47.5,47.5S3681.5,464,3707.7,464z
			 M3707.7,455.2c21.4,0,38.7-17.3,38.7-38.7s-17.3-38.7-38.7-38.7s-38.7,17.3-38.7,38.7S3686.4,455.2,3707.7,455.2z"/>
	</g>
</g>
<path class="st1" d="M51.4,29.8v14.1H66c0,0,4.1-0.1,4.4,4.4c-0.2,3.7-3.2,4.4-4.4,4.4s-14.6,0-14.6,0v14.6c0,0-0.1,4.2-4.4,4.4
	c-4.4-0.3-4.4-4.1-4.4-4.4s0-14.6,0-14.6H28c0,0-4.2,0-4.4-4.4c0.3-4.5,4.4-4.4,4.4-4.4h14.6V29.2c0,0,0-4.1,4.4-4.4
	C51.6,25.2,51.4,29.4,51.4,29.8z"/>
</svg>
