<?xml version="1.0" encoding="utf-8"?>
<!-- Generator: Adobe Illustrator 23.0.3, SVG Export Plug-In . SVG Version: 6.00 Build 0)  -->
<svg version="1.1"
	 id="Calque_1" xmlns:cc="http://creativecommons.org/ns#" xmlns:dc="http://purl.org/dc/elements/1.1/" xmlns:inkscape="http://www.inkscape.org/namespaces/inkscape" xmlns:rdf="http://www.w3.org/1999/02/22-rdf-syntax-ns#" xmlns:sodipodi="http://sodipodi.sourceforge.net/DTD/sodipodi-0.dtd" xmlns:svg="http://www.w3.org/2000/svg"
	 xmlns="http://www.w3.org/2000/svg" xmlns:xlink="http://www.w3.org/1999/xlink" x="0px" y="0px" viewBox="0 0 100 103.2"
	 style="enable-background:new 0 0 100 103.2;" xml:space="preserve">
<g transform="translate(0,-952.36218)">
	<path d="M50,962.4c-12.7,0-25,9.9-25,23.8c0,8.9,3.4,14.5,6.7,19.1s6.3,8.3,6.3,14.1v12c0,2.8,2.4,5,5,5h2v1c0,2.8,2.2,5,5,5
		s5-2.2,5-5v-1h2c2.6,0,5-2.2,5-5v-12c0-5.7,3-9.4,6.3-14.1s6.7-10.2,6.7-19.1C75,972.2,62.7,962.4,50,962.4z M50,964.4
		c11.7,0,23,9,23,21.8c0,8.4-3.1,13.4-6.3,17.9c-3.1,4.3-6.3,8.3-6.7,14.2H40c-0.3-5.9-3.6-9.9-6.7-14.2c-3.2-4.6-6.3-9.5-6.3-17.9
		C27,973.4,38.3,964.4,50,964.4z M47.9,969.5c-8.9,1-15.9,8.7-15.9,17.9c0,1.8,0.3,3.6,0.8,5.3c0.2,0.5,0.8,0.8,1.3,0.7
		c0.5-0.2,0.8-0.8,0.7-1.3c-0.5-1.5-0.7-3-0.7-4.7c0-8.2,6.2-15,14.1-15.9c0.5,0,1-0.5,0.9-1.1C48.9,969.6,48.5,969.4,47.9,969.5z
		 M40,1020.4h20v6H40V1020.4z M40,1028.4h20v3c0,1.8-1.4,3-3,3H43c-1.6,0-3-1.2-3-3V1028.4z M47,1036.4h6v1c0,1.7-1.3,3-3,3
		s-3-1.3-3-3V1036.4z"/>
</g>
</svg>
