<?xml version="1.0" encoding="utf-8"?>
<!-- Generator: Adobe Illustrator 23.0.3, SVG Export Plug-In . SVG Version: 6.00 Build 0)  -->
<svg version="1.1" id="Calque_1" xmlns="http://www.w3.org/2000/svg" xmlns:xlink="http://www.w3.org/1999/xlink" x="0px" y="0px"
	 viewBox="0 0 100 98.4" style="enable-background:new 0 0 100 98.4;" xml:space="preserve">
<path d="M85.5,38.7h-1.6V12.9H60.7L54.2,0H29v12.9v3.2v23.5c-5.6,2-9.7,7.3-9.7,13.6V71h-8.1c-4.4,0-8.1-3.6-8.1-8.1V43.5
	c0-4.4,3.6-8.1,8.1-8.1c6.2,0,11.3-5.1,11.3-11.3s-5.1-11.3-11.3-11.3H1.6V16h9.7c4.4,0,8.1,3.6,8.1,8.1s-3.6,8.1-8.1,8.1
	C5.1,32.3,0,37.3,0,43.5v19.4c0,6.2,5.1,11.3,11.3,11.3h8.2c0.8,6.7,6,12,12.7,12.7v11.5h3.2V87.1h48.4v11.3H87V86.9
	c7.3-0.8,13-6.9,13-14.3V53.2C100,45.2,93.5,38.7,85.5,38.7z M32.3,3.2h20l4.8,9.7H32.3V3.2z M32.3,38.7V16.1h30h18.4v22.6H33.9
	H32.3z M96.8,72.6c0,6.2-5.1,11.3-11.3,11.3H33.9c-6.2,0-11.3-5.1-11.3-11.3V53.2c0-6.2,5.1-11.3,11.3-11.3h50h1.6
	c6.2,0,11.3,5.1,11.3,11.3V72.6z"/>
</svg>
