<?xml version="1.0" encoding="iso-8859-1"?>
<!-- Generator: Adobe Illustrator 18.1.1, SVG Export Plug-In . SVG Version: 6.00 Build 0)  -->
<svg version="1.1" id="Capa_1" xmlns="http://www.w3.org/2000/svg" xmlns:xlink="http://www.w3.org/1999/xlink" x="0px" y="0px"
	 viewBox="0 0 56.426 56.426" style="enable-background:new 0 0 56.426 56.426;" xml:space="preserve">
<g>
	<g>
		<path style="fill:#010002;" d="M37.074,19.591c0.187,0.015,0.375,0.023,0.564,0.023c3.135,0,6.438-2.111,7.684-4.911l1.204-2.707
			c1.348-3.027,1.005-4.146,0.63-4.724c-0.542-0.832-1.655-1.07-2.669-0.475c-0.215,0.127-0.411,0.228-0.576,0.305l-0.775-1.269
			c-0.4-0.65-0.746-1.237-1.04-1.757c-0.297-0.528-0.476-0.857-0.577-1.044c-0.684-1.182-2.05-1.872-4.177-2.109
			c-1.67-0.186-4.184-0.26-7.701-0.232c-3.393,0.032-5.686,0.064-6.88,0.095c-0.559,0.012-1.072,0.034-1.542,0.065
			c-0.321,0.021-0.75,0.053-1.155,0.168c-0.389-0.105-0.757-0.188-1.091-0.234c-0.283-0.039-0.542-0.069-0.778-0.091
			c-0.553-0.054-1.576,0.059-2.303,0.258c-0.505,0.139-0.916,0.284-1.244,0.437c-0.77,0.35-1.361,0.885-1.71,1.507
			c-0.148,0.228-0.409,0.664-0.771,1.298c-0.342,0.593-0.784,1.334-1.333,2.226l-3.949,6.497c-0.283,0.463-0.356,1.029-0.207,1.594
			c0.484,1.829,3.37,3.547,4.242,4.03l2.296,1.271c0.966,0.534,2.072,0.817,3.2,0.817c2.265,0,4.43-1.14,5.649-2.974l2.994-4.505
			c1.254-1.886,1.961-3.109,2.339-3.946l1.843,3.112c0.856,1.446,0.941,2.547,0.873,2.89c-0.832,0.568-0.993,1.381-0.856,1.973
			c0.194,0.841,0.902,1.846,4.683,2.156L37.074,19.591z M22.561,11.488l-2.996,4.504c-0.671,1.009-1.879,1.636-3.151,1.636
			c-0.621,0-1.226-0.153-1.747-0.442l-2.296-1.271c-1.408-0.779-2.254-1.524-2.616-1.946l3.635-5.982
			c0.565-0.918,1.021-1.684,1.378-2.301c0.322-0.564,0.55-0.95,0.73-1.232c0.056-0.099,0.15-0.226,0.404-0.341
			c0.127-0.059,0.365-0.154,0.781-0.268c0.378-0.103,0.868-0.158,1.233-0.163c0.194,0.018,0.41,0.043,0.641,0.075
			c0.484,0.068,1.133,0.253,1.88,0.536c0.701,0.263,1.432,0.705,2.173,1.317c0.722,0.593,1.363,1.393,1.947,2.446l0.037,0.059
			C24.274,8.753,23.577,9.959,22.561,11.488z M31.823,10.786l-2.241-3.782c-0.75-1.319-1.643-2.423-2.652-3.284
			c0.814-0.009,1.726-0.019,2.736-0.028c3.345-0.031,5.813,0.043,7.342,0.213c1.569,0.175,1.879,0.577,1.886,0.579
			c0.076,0.145,0.269,0.497,0.587,1.064c0.312,0.553,0.678,1.172,1.098,1.854l1.243,2.054c0.402,0.704,1.254,0.989,2.193,0.776
			c-0.067,0.168-0.144,0.35-0.23,0.544l-1.204,2.707c-0.811,1.82-3.236,3.288-5.261,3.118l-3.135-0.257
			c-0.498-0.041-0.909-0.094-1.242-0.151C33.389,14.796,33.017,12.802,31.823,10.786z"/>
		<path style="fill:#010002;" d="M21.924,36.839l-8.657,0.08c-0.078-0.051-0.154-0.101-0.238-0.151c0,0-0.011-0.033-0.012-0.115
			c0-0.001,0.001-0.128,0.201-0.488c0.008-0.016,0.083-0.162,0.385-0.529c0.269-0.324,0.548-0.651,0.827-0.973
			c0.142-0.161,0.275-0.309,0.4-0.445c0.215,0.097,0.483,0.231,0.793,0.407c0.374,0.213,0.731,0.317,1.094,0.317h0.001
			c0.616,0,1.172-0.313,1.487-0.838c0.398-0.661,0.589-1.738-0.997-4.724l-1.174-2.209c-1.483-2.794-5.017-4.901-8.221-4.901
			l-2.894,0.086c-2.96,0.092-4.36,0.664-4.683,1.915c-0.08,0.31-0.242,1.381,1.037,2.14c0.14,0.083,0.267,0.162,0.38,0.235
			c-0.107,0.166-0.215,0.343-0.325,0.531c-0.365,0.622-0.682,1.361-0.941,2.201C0.12,30.245-0.006,31.178,0,32.235
			c0.005,0.63,0.054,1.2,0.147,1.691c0.089,0.47,0.237,0.971,0.441,1.491c0.275,0.833,0.827,1.587,1.661,2.28
			c0.179,0.316,0.374,0.661,0.605,1.065l0.354,0.623c0.518,0.906,1.06,1.862,1.632,2.873c0.558,0.99,0.962,1.725,1.2,2.183
			c0.104,0.209,0.174,0.354,0.206,0.437c0.015,0.04,0.031,0.079,0.05,0.118c0.438,0.928,0.85,1.761,1.236,2.5
			c0.413,0.78,0.865,1.562,1.343,2.325c0.562,0.896,1.131,1.609,1.739,2.184c0.798,0.749,1.631,1.129,2.476,1.129
			c0.005,0,0.018,0,0.023,0l8.959-0.082c3.48-0.032,6.285-2.89,6.253-6.37l-0.033-3.588C28.263,39.644,25.432,36.839,21.924,36.839z
			 M5.934,36.198c-0.491-0.22-0.908-0.464-1.238-0.724c-0.368-0.289-0.555-0.524-0.604-0.589c-0.175-0.234-0.419-0.403-0.688-0.506
			c-0.003-0.008-0.006-0.017-0.009-0.025c-0.143-0.358-0.244-0.69-0.3-0.986C3.036,33.057,3.003,32.658,3,32.216
			c-0.004-0.746,0.079-1.386,0.253-1.955c0.19-0.615,0.413-1.141,0.663-1.566c0.33-0.564,0.558-0.863,0.653-0.977
			c0.07-0.083,0.134-0.156,0.188-0.213c0.312-0.332,0.471-0.843,0.406-1.294c-0.034-0.239-0.105-0.508-0.375-0.848
			c0.072-0.003,0.146-0.006,0.224-0.008l2.802-0.085c2.067,0,4.619,1.515,5.571,3.308l1.175,2.21
			c0.047,0.089,0.092,0.176,0.135,0.26c-0.577-0.07-1.064,0.096-1.46,0.499l-0.224,0.229c-0.235,0.244-0.517,0.546-0.84,0.913
			c-0.302,0.349-0.595,0.692-0.882,1.039c-0.365,0.445-0.608,0.799-0.723,1.038c-0.37,0.654-0.555,1.298-0.55,1.914
			c0.001,0.094,0.01,0.182,0.017,0.27l-0.195,0.002C8.352,36.951,7.039,36.698,5.934,36.198z M22.047,50.051l-8.934,0.082
			c-0.035-0.012-0.182-0.072-0.44-0.314c-0.414-0.39-0.836-0.926-1.254-1.593c-0.439-0.7-0.854-1.418-1.23-2.128
			c-0.36-0.69-0.747-1.473-1.159-2.343c-0.059-0.143-0.159-0.364-0.314-0.675c-0.258-0.499-0.68-1.265-1.262-2.297
			c-0.18-0.318-0.354-0.627-0.528-0.934c0.75,0.146,1.523,0.238,2.335,0.238l1.998-0.018c0.487-0.005,1.057-0.016,1.565-0.146
			l9.159-0.084c1.809,0,3.294,1.472,3.31,3.281l0.033,3.588C25.344,48.535,23.872,50.034,22.047,50.051z"/>
		<path style="fill:#010002;" d="M54.737,27.017l-2.636-4.918c-0.57-1.044-1.053-1.936-1.446-2.669l-0.371-0.689
			c-0.298-0.551-0.883-0.88-1.565-0.88c-1.376,0-3.976,1.483-5.03,2.121l-2.575,1.558c-1.719,1.039-2.92,2.573-3.295,4.206
			c-0.264,1.143-0.085,2.271,0.501,3.176l1.809,2.793c1.91,2.944,3.192,4.927,3.865,5.983c-0.745,0.007-1.715,0.016-2.931,0.027
			c-1.624,0-2.728-0.435-3.042-0.706c-0.034-0.533-0.217-0.97-0.545-1.299c-0.324-0.324-0.757-0.503-1.219-0.503
			c-0.761,0-1.776,0.382-3.548,3.218l-1.347,2.156c-1.709,2.736-1.703,7.018,0.013,9.749l1.417,2.254
			c1.744,2.776,2.76,3.151,3.521,3.151c0.001,0,0.001,0,0.001,0c0.469,0,0.907-0.182,1.233-0.512
			c0.374-0.378,0.561-0.897,0.555-1.543c0-0.01,0.02-0.073,0.111-0.167c0.228-0.231,0.762-0.504,1.52-0.511l3.138-0.029
			c1.029-0.009,2.009-0.404,2.91-1.173c0.732-0.625,1.439-1.447,2.101-2.442c0.62-0.935,1.191-1.918,1.696-2.916
			c0.482-0.948,1.101-2.233,1.878-3.908c0.305-0.628,0.599-1.242,0.871-1.84l0.682-1.25c0.563-0.97,1.029-1.814,1.381-2.502
			c0.193-0.374,0.372-0.76,0.54-1.161c0.093-0.225,0.181-0.463,0.237-0.707c0.061-0.08,0.133-0.171,0.185-0.242
			c0.359-0.493,0.753-1.442,0.914-2.203c0.112-0.517,0.165-1.02,0.159-1.485c-0.006-0.739-0.161-1.388-0.491-1.982
			C55.716,28.816,55.347,28.151,54.737,27.017z M48.746,41.258c-0.772,1.663-1.375,2.917-1.844,3.836
			c-0.453,0.898-0.965,1.777-1.52,2.613c-0.508,0.764-1.03,1.377-1.55,1.821c-0.355,0.303-0.679,0.452-0.991,0.455l-3.135,0.029
			c-1.442,0.013-2.767,0.526-3.634,1.409c-0.094,0.096-0.182,0.195-0.263,0.298c-0.146-0.207-0.306-0.446-0.479-0.722l-1.416-2.254
			c-1.117-1.778-1.121-4.783-0.009-6.563l1.347-2.156c0.228-0.364,0.433-0.667,0.613-0.917c1.023,1.013,2.963,1.617,5.195,1.617
			c0.005,0,0.109,0,0.113,0c2.987-0.028,4.53-0.042,4.687-0.043c1.256-0.048,2.442-0.311,3.533-0.783
			C49.191,40.337,48.974,40.788,48.746,41.258z M53.333,32.011c-0.095,0.442-0.332,0.954-0.407,1.066
			c-0.095,0.13-0.208,0.279-0.342,0.448c-0.008,0.01-0.019,0.021-0.026,0.032c-0.058,0.059-0.116,0.105-0.171,0.178l-0.144,0.186
			c-0.278,0.306-0.628,0.653-1.058,1.046c-0.572,0.525-1.31,1.012-2.191,1.446c-0.6,0.295-1.219,0.492-1.876,0.595
			c-0.115-0.177-0.263-0.404-0.451-0.697c-0.623-0.983-1.965-3.059-4.022-6.229l-1.809-2.792c-0.145-0.224-0.177-0.517-0.096-0.872
			c0.189-0.822,0.927-1.708,1.925-2.312l2.575-1.558c1.286-0.778,2.283-1.249,2.883-1.489c0.374,0.696,0.822,1.523,1.338,2.467
			l2.632,4.911c0.646,1.2,1.027,1.887,1.247,2.245c0.019,0.035,0.081,0.173,0.084,0.506C53.429,31.435,53.398,31.711,53.333,32.011z
			"/>
	</g>
</g>
<g>
</g>
<g>
</g>
<g>
</g>
<g>
</g>
<g>
</g>
<g>
</g>
<g>
</g>
<g>
</g>
<g>
</g>
<g>
</g>
<g>
</g>
<g>
</g>
<g>
</g>
<g>
</g>
<g>
</g>
</svg>
